# Blender v3.0.1 OBJ File: ''
# www.blender.org
mtllib pipiska.mtl
o Сфера
v -0.518718 0.480854 -0.260291
v -0.518718 0.039181 -0.515291
v -0.518718 -0.402492 -0.260291
v -0.518718 -0.470819 -0.005291
v -0.391218 0.480854 -0.226127
v -0.297881 0.294181 -0.387791
v -0.263718 0.039181 -0.446964
v -0.297881 -0.215819 -0.387791
v -0.391217 -0.402492 -0.226127
v -0.297881 0.480854 -0.132791
v -0.136217 0.294181 -0.226127
v -0.077045 0.039181 -0.260291
v -0.136218 -0.215819 -0.226127
v -0.297881 -0.402492 -0.132791
v -0.263717 0.480854 -0.005291
v -0.077044 0.294181 -0.005291
v -0.008717 0.039181 -0.005291
v -0.077045 -0.215819 -0.005291
v -0.263717 -0.402492 -0.005291
v -0.297881 0.480854 0.122209
v -0.136217 0.294181 0.215546
v -0.077045 0.039181 0.249709
v -0.136218 -0.215819 0.215546
v -0.297881 -0.402492 0.122209
v -0.391218 0.480854 0.215546
v -0.297881 0.294181 0.377210
v -0.263718 0.039181 0.436382
v -0.297881 -0.215819 0.377209
v -0.391218 -0.402492 0.215546
v -0.518718 0.480854 0.249709
v -0.518718 0.294181 0.436382
v -0.518718 0.039181 0.504709
v -0.518718 -0.215819 0.436382
v -0.518718 -0.402492 0.249709
v -0.646218 0.480854 0.215546
v -0.739554 0.294181 0.377209
v -0.773718 0.039181 0.436382
v -0.739554 -0.215819 0.377209
v -0.646218 -0.402492 0.215546
v -0.518718 0.549181 -0.005291
v -0.739554 0.480854 0.122209
v -0.901218 0.294181 0.215546
v -0.960390 0.039181 0.249709
v -0.901217 -0.215819 0.215546
v -0.739554 -0.402492 0.122209
v -0.773718 0.480854 -0.005291
v -0.960390 0.294181 -0.005291
v -1.028718 0.039181 -0.005291
v -0.960390 -0.215819 -0.005291
v -0.773718 -0.402492 -0.005291
v -0.739554 0.480854 -0.132791
v -0.901217 0.294181 -0.226127
v -0.960390 0.039181 -0.260291
v -0.901217 -0.215819 -0.226127
v -0.739554 -0.402492 -0.132791
v -0.646218 0.480854 -0.226127
v -0.739554 0.294181 -0.387791
v -0.773718 0.039181 -0.446964
v -0.739554 -0.215819 -0.387791
v -0.646218 -0.402492 -0.226127
v -0.518717 0.294181 -0.446963
v -0.518718 -0.215819 -0.446963
vt 0.750000 0.500000
vt 0.750000 0.666667
vt 0.666667 0.666667
vt 0.666667 0.500000
vt 0.750000 0.833333
vt 0.708333 1.000000
vt 0.666667 0.833333
vt 0.708333 0.000000
vt 0.750000 0.166667
vt 0.666667 0.166667
vt 0.750000 0.333333
vt 0.666667 0.333333
vt 0.625000 0.000000
vt 0.583333 0.166667
vt 0.583333 0.500000
vt 0.583333 0.333333
vt 0.583333 0.833333
vt 0.583333 0.666667
vt 0.625000 1.000000
vt 0.541667 0.000000
vt 0.500000 0.166667
vt 0.500000 0.500000
vt 0.500000 0.333333
vt 0.500000 0.833333
vt 0.500000 0.666667
vt 0.541667 1.000000
vt 0.416667 0.500000
vt 0.416667 0.333333
vt 0.416667 0.833333
vt 0.416667 0.666667
vt 0.416667 0.166667
vt 0.458333 1.000000
vt 0.458333 0.000000
vt 0.333333 0.833333
vt 0.333333 0.666667
vt 0.333333 0.333333
vt 0.333333 0.166667
vt 0.333333 0.500000
vt 0.375000 1.000000
vt 0.375000 0.000000
vt 0.250000 0.333333
vt 0.250000 0.166667
vt 0.250000 0.666667
vt 0.250000 0.500000
vt 0.291667 1.000000
vt 0.250000 0.833333
vt 0.291667 0.000000
vt 0.166667 0.333333
vt 0.166667 0.166667
vt 0.166667 0.666667
vt 0.166667 0.500000
vt 0.208333 1.000000
vt 0.166667 0.833333
vt 0.208333 0.000000
vt 0.083333 0.333333
vt 0.083333 0.166667
vt 0.083333 0.666667
vt 0.083333 0.500000
vt 0.125000 1.000000
vt 0.083333 0.833333
vt 0.125000 0.000000
vt 0.000000 0.333333
vt 0.000000 0.166667
vt 0.000000 0.666667
vt 0.000000 0.500000
vt 0.041667 1.000000
vt 0.000000 0.833333
vt 0.041667 0.000000
vt 1.000000 0.500000
vt 1.000000 0.666667
vt 0.916667 0.666667
vt 0.916667 0.500000
vt 1.000000 0.833333
vt 0.958333 1.000000
vt 0.916667 0.833333
vt 0.958333 0.000000
vt 1.000000 0.166667
vt 0.916667 0.166667
vt 1.000000 0.333333
vt 0.916667 0.333333
vt 0.875000 1.000000
vt 0.833333 0.833333
vt 0.875000 0.000000
vt 0.833333 0.166667
vt 0.833333 0.500000
vt 0.833333 0.333333
vt 0.833333 0.666667
vt 0.791667 0.000000
vt 0.791667 1.000000
vn 0.2506 0.2506 -0.9351
vn 0.0692 0.9636 -0.2582
vn 0.0692 -0.9636 -0.2582
vn 0.2506 -0.2506 -0.9351
vn 0.1862 0.6947 -0.6947
vn 0.1862 -0.6947 -0.6947
vn 0.1890 -0.9636 -0.1890
vn 0.6846 -0.2506 -0.6846
vn 0.5086 0.6947 -0.5086
vn 0.5086 -0.6947 -0.5086
vn 0.6846 0.2506 -0.6846
vn 0.1890 0.9636 -0.1890
vn 0.2582 -0.9636 -0.0692
vn 0.9351 -0.2506 -0.2506
vn 0.6947 0.6947 -0.1862
vn 0.6947 -0.6947 -0.1862
vn 0.9351 0.2506 -0.2506
vn 0.2582 0.9636 -0.0692
vn 0.9351 -0.2506 0.2506
vn 0.6947 0.6947 0.1862
vn 0.6947 -0.6947 0.1862
vn 0.9351 0.2506 0.2506
vn 0.2582 0.9636 0.0692
vn 0.2582 -0.9636 0.0692
vn 0.5086 0.6947 0.5086
vn 0.5086 -0.6947 0.5086
vn 0.6846 0.2506 0.6846
vn 0.1890 0.9636 0.1890
vn 0.1890 -0.9636 0.1890
vn 0.6846 -0.2506 0.6846
vn 0.1862 -0.6947 0.6947
vn 0.2506 0.2506 0.9351
vn 0.0692 0.9636 0.2582
vn 0.0692 -0.9636 0.2582
vn 0.2506 -0.2506 0.9351
vn 0.1862 0.6947 0.6947
vn -0.1862 -0.6947 0.6947
vn -0.2506 0.2506 0.9351
vn -0.0692 0.9636 0.2582
vn -0.0692 -0.9636 0.2582
vn -0.2506 -0.2506 0.9351
vn -0.1862 0.6947 0.6947
vn -0.5086 -0.6947 0.5086
vn -0.6846 0.2506 0.6846
vn -0.1890 0.9636 0.1890
vn -0.1890 -0.9636 0.1890
vn -0.6846 -0.2506 0.6846
vn -0.5086 0.6947 0.5086
vn -0.6947 -0.6947 0.1862
vn -0.9351 0.2506 0.2506
vn -0.2582 0.9636 0.0692
vn -0.2582 -0.9636 0.0692
vn -0.9351 -0.2506 0.2506
vn -0.6947 0.6947 0.1862
vn -0.9351 0.2506 -0.2506
vn -0.2582 0.9636 -0.0692
vn -0.2582 -0.9636 -0.0692
vn -0.9351 -0.2506 -0.2506
vn -0.6947 0.6947 -0.1862
vn -0.6947 -0.6947 -0.1862
vn -0.1890 0.9636 -0.1890
vn -0.1890 -0.9636 -0.1890
vn -0.6846 -0.2506 -0.6846
vn -0.5086 0.6947 -0.5086
vn -0.5086 -0.6947 -0.5086
vn -0.6846 0.2506 -0.6846
vn -0.0692 -0.9636 -0.2582
vn -0.2506 -0.2506 -0.9351
vn -0.1862 0.6947 -0.6947
vn -0.1862 -0.6947 -0.6947
vn -0.2506 0.2506 -0.9351
vn -0.0692 0.9636 -0.2582
usemtl None
s off
f 2/1/1 61/2/1 6/3/1 7/4/1
f 1/5/2 40/6/2 5/7/2
f 4/8/3 3/9/3 9/10/3
f 62/11/4 2/1/4 7/4/4 8/12/4
f 61/2/5 1/5/5 5/7/5 6/3/5
f 3/9/6 62/11/6 8/12/6 9/10/6
f 4/13/7 9/10/7 14/14/7
f 8/12/8 7/4/8 12/15/8 13/16/8
f 6/3/9 5/7/9 10/17/9 11/18/9
f 9/10/10 8/12/10 13/16/10 14/14/10
f 7/4/11 6/3/11 11/18/11 12/15/11
f 5/7/12 40/19/12 10/17/12
f 4/20/13 14/14/13 19/21/13
f 13/16/14 12/15/14 17/22/14 18/23/14
f 11/18/15 10/17/15 15/24/15 16/25/15
f 14/14/16 13/16/16 18/23/16 19/21/16
f 12/15/17 11/18/17 16/25/17 17/22/17
f 10/17/18 40/26/18 15/24/18
f 18/23/19 17/22/19 22/27/19 23/28/19
f 16/25/20 15/24/20 20/29/20 21/30/20
f 19/21/21 18/23/21 23/28/21 24/31/21
f 17/22/22 16/25/22 21/30/22 22/27/22
f 15/24/23 40/32/23 20/29/23
f 4/33/24 19/21/24 24/31/24
f 21/30/25 20/29/25 25/34/25 26/35/25
f 24/31/26 23/28/26 28/36/26 29/37/26
f 22/27/27 21/30/27 26/35/27 27/38/27
f 20/29/28 40/39/28 25/34/28
f 4/40/29 24/31/29 29/37/29
f 23/28/30 22/27/30 27/38/30 28/36/30
f 29/37/31 28/36/31 33/41/31 34/42/31
f 27/38/32 26/35/32 31/43/32 32/44/32
f 25/34/33 40/45/33 30/46/33
f 4/47/34 29/37/34 34/42/34
f 28/36/35 27/38/35 32/44/35 33/41/35
f 26/35/36 25/34/36 30/46/36 31/43/36
f 34/42/37 33/41/37 38/48/37 39/49/37
f 32/44/38 31/43/38 36/50/38 37/51/38
f 30/46/39 40/52/39 35/53/39
f 4/54/40 34/42/40 39/49/40
f 33/41/41 32/44/41 37/51/41 38/48/41
f 31/43/42 30/46/42 35/53/42 36/50/42
f 39/49/43 38/48/43 44/55/43 45/56/43
f 37/51/44 36/50/44 42/57/44 43/58/44
f 35/53/45 40/59/45 41/60/45
f 4/61/46 39/49/46 45/56/46
f 38/48/47 37/51/47 43/58/47 44/55/47
f 36/50/48 35/53/48 41/60/48 42/57/48
f 45/56/49 44/55/49 49/62/49 50/63/49
f 43/58/50 42/57/50 47/64/50 48/65/50
f 41/60/51 40/66/51 46/67/51
f 4/68/52 45/56/52 50/63/52
f 44/55/53 43/58/53 48/65/53 49/62/53
f 42/57/54 41/60/54 46/67/54 47/64/54
f 48/69/55 47/70/55 52/71/55 53/72/55
f 46/73/56 40/74/56 51/75/56
f 4/76/57 50/77/57 55/78/57
f 49/79/58 48/69/58 53/72/58 54/80/58
f 47/70/59 46/73/59 51/75/59 52/71/59
f 50/77/60 49/79/60 54/80/60 55/78/60
f 51/75/61 40/81/61 56/82/61
f 4/83/62 55/78/62 60/84/62
f 54/80/63 53/72/63 58/85/63 59/86/63
f 52/71/64 51/75/64 56/82/64 57/87/64
f 55/78/65 54/80/65 59/86/65 60/84/65
f 53/72/66 52/71/66 57/87/66 58/85/66
f 4/88/67 60/84/67 3/9/67
f 59/86/68 58/85/68 2/1/68 62/11/68
f 57/87/69 56/82/69 1/5/69 61/2/69
f 60/84/70 59/86/70 62/11/70 3/9/70
f 58/85/71 57/87/71 61/2/71 2/1/71
f 56/82/72 40/89/72 1/5/72
o Сфера.001
v 0.513691 0.483263 -0.264753
v 0.513691 0.041590 -0.519753
v 0.513691 -0.400083 -0.264753
v 0.513691 -0.468410 -0.009753
v 0.641191 0.483263 -0.230589
v 0.734528 0.296590 -0.392253
v 0.768691 0.041590 -0.451426
v 0.734528 -0.213410 -0.392253
v 0.641191 -0.400083 -0.230589
v 0.734528 0.483263 -0.137253
v 0.896191 0.296590 -0.230589
v 0.955364 0.041590 -0.264753
v 0.896191 -0.213410 -0.230589
v 0.734528 -0.400083 -0.137253
v 0.768691 0.483263 -0.009753
v 0.955364 0.296590 -0.009753
v 1.023691 0.041590 -0.009753
v 0.955364 -0.213410 -0.009753
v 0.768691 -0.400083 -0.009753
v 0.734528 0.483263 0.117747
v 0.896191 0.296590 0.211084
v 0.955364 0.041590 0.245247
v 0.896191 -0.213410 0.211084
v 0.734528 -0.400083 0.117747
v 0.641191 0.483263 0.211084
v 0.734528 0.296590 0.372747
v 0.768691 0.041590 0.431920
v 0.734528 -0.213410 0.372747
v 0.641191 -0.400083 0.211084
v 0.513691 0.483263 0.245247
v 0.513691 0.296590 0.431920
v 0.513691 0.041590 0.500247
v 0.513691 -0.213410 0.431920
v 0.513691 -0.400083 0.245247
v 0.386191 0.483263 0.211084
v 0.292855 0.296590 0.372747
v 0.258691 0.041590 0.431920
v 0.292855 -0.213410 0.372747
v 0.386191 -0.400083 0.211084
v 0.513691 0.551590 -0.009753
v 0.292855 0.483263 0.117747
v 0.131191 0.296590 0.211084
v 0.072018 0.041590 0.245247
v 0.131191 -0.213410 0.211084
v 0.292855 -0.400083 0.117747
v 0.258691 0.483263 -0.009753
v 0.072018 0.296590 -0.009753
v 0.003691 0.041590 -0.009753
v 0.072018 -0.213410 -0.009753
v 0.258691 -0.400083 -0.009753
v 0.292855 0.483263 -0.137253
v 0.131191 0.296590 -0.230589
v 0.072018 0.041590 -0.264753
v 0.131191 -0.213410 -0.230589
v 0.292855 -0.400083 -0.137253
v 0.386191 0.483263 -0.230589
v 0.292855 0.296590 -0.392253
v 0.258691 0.041590 -0.451426
v 0.292855 -0.213410 -0.392253
v 0.386191 -0.400083 -0.230589
v 0.513691 0.296590 -0.451426
v 0.513691 -0.213410 -0.451426
vt 0.750000 0.500000
vt 0.750000 0.666667
vt 0.666667 0.666667
vt 0.666667 0.500000
vt 0.750000 0.833333
vt 0.708333 1.000000
vt 0.666667 0.833333
vt 0.708333 0.000000
vt 0.750000 0.166667
vt 0.666667 0.166667
vt 0.750000 0.333333
vt 0.666667 0.333333
vt 0.625000 0.000000
vt 0.583333 0.166667
vt 0.583333 0.500000
vt 0.583333 0.333333
vt 0.583333 0.833333
vt 0.583333 0.666667
vt 0.625000 1.000000
vt 0.541667 0.000000
vt 0.500000 0.166667
vt 0.500000 0.500000
vt 0.500000 0.333333
vt 0.500000 0.833333
vt 0.500000 0.666667
vt 0.541667 1.000000
vt 0.416667 0.500000
vt 0.416667 0.333333
vt 0.416667 0.833333
vt 0.416667 0.666667
vt 0.416667 0.166667
vt 0.458333 1.000000
vt 0.458333 0.000000
vt 0.333333 0.833333
vt 0.333333 0.666667
vt 0.333333 0.333333
vt 0.333333 0.166667
vt 0.333333 0.500000
vt 0.375000 1.000000
vt 0.375000 0.000000
vt 0.250000 0.333333
vt 0.250000 0.166667
vt 0.250000 0.666667
vt 0.250000 0.500000
vt 0.291667 1.000000
vt 0.250000 0.833333
vt 0.291667 0.000000
vt 0.166667 0.333333
vt 0.166667 0.166667
vt 0.166667 0.666667
vt 0.166667 0.500000
vt 0.208333 1.000000
vt 0.166667 0.833333
vt 0.208333 0.000000
vt 0.083333 0.333333
vt 0.083333 0.166667
vt 0.083333 0.666667
vt 0.083333 0.500000
vt 0.125000 1.000000
vt 0.083333 0.833333
vt 0.125000 0.000000
vt 0.000000 0.333333
vt 0.000000 0.166667
vt 0.000000 0.666667
vt 0.000000 0.500000
vt 0.041667 1.000000
vt 0.000000 0.833333
vt 0.041667 0.000000
vt 1.000000 0.500000
vt 1.000000 0.666667
vt 0.916667 0.666667
vt 0.916667 0.500000
vt 1.000000 0.833333
vt 0.958333 1.000000
vt 0.916667 0.833333
vt 0.958333 0.000000
vt 1.000000 0.166667
vt 0.916667 0.166667
vt 1.000000 0.333333
vt 0.916667 0.333333
vt 0.875000 1.000000
vt 0.833333 0.833333
vt 0.875000 0.000000
vt 0.833333 0.166667
vt 0.833333 0.500000
vt 0.833333 0.333333
vt 0.833333 0.666667
vt 0.791667 0.000000
vt 0.791667 1.000000
vn 0.2506 0.2506 -0.9351
vn 0.0692 0.9636 -0.2582
vn 0.0692 -0.9636 -0.2582
vn 0.2506 -0.2506 -0.9351
vn 0.1862 0.6947 -0.6947
vn 0.1862 -0.6947 -0.6947
vn 0.1890 -0.9636 -0.1890
vn 0.6846 -0.2506 -0.6846
vn 0.5086 0.6947 -0.5086
vn 0.5086 -0.6947 -0.5086
vn 0.6846 0.2506 -0.6846
vn 0.1890 0.9636 -0.1890
vn 0.2582 -0.9636 -0.0692
vn 0.9351 -0.2506 -0.2506
vn 0.6947 0.6947 -0.1862
vn 0.6947 -0.6947 -0.1862
vn 0.9351 0.2506 -0.2506
vn 0.2582 0.9636 -0.0692
vn 0.9351 -0.2506 0.2506
vn 0.6947 0.6947 0.1862
vn 0.6947 -0.6947 0.1862
vn 0.9351 0.2506 0.2506
vn 0.2582 0.9636 0.0692
vn 0.2582 -0.9636 0.0692
vn 0.5086 0.6947 0.5086
vn 0.5086 -0.6947 0.5086
vn 0.6846 0.2506 0.6846
vn 0.1890 0.9636 0.1890
vn 0.1890 -0.9636 0.1890
vn 0.6846 -0.2506 0.6846
vn 0.1862 -0.6947 0.6947
vn 0.2506 0.2506 0.9351
vn 0.0692 0.9636 0.2582
vn 0.0692 -0.9636 0.2582
vn 0.2506 -0.2506 0.9351
vn 0.1862 0.6947 0.6947
vn -0.1862 -0.6947 0.6947
vn -0.2506 0.2506 0.9351
vn -0.0692 0.9636 0.2582
vn -0.0692 -0.9636 0.2582
vn -0.2506 -0.2506 0.9351
vn -0.1862 0.6947 0.6947
vn -0.5086 -0.6947 0.5086
vn -0.6846 0.2506 0.6846
vn -0.1890 0.9636 0.1890
vn -0.1890 -0.9636 0.1890
vn -0.6846 -0.2506 0.6846
vn -0.5086 0.6947 0.5086
vn -0.6947 -0.6947 0.1862
vn -0.9351 0.2506 0.2506
vn -0.2582 0.9636 0.0692
vn -0.2582 -0.9636 0.0692
vn -0.9351 -0.2506 0.2506
vn -0.6947 0.6947 0.1862
vn -0.9351 0.2506 -0.2506
vn -0.2582 0.9636 -0.0692
vn -0.2582 -0.9636 -0.0692
vn -0.9351 -0.2506 -0.2506
vn -0.6947 0.6947 -0.1862
vn -0.6947 -0.6947 -0.1862
vn -0.1890 0.9636 -0.1890
vn -0.1890 -0.9636 -0.1890
vn -0.6846 -0.2506 -0.6846
vn -0.5086 0.6947 -0.5086
vn -0.5086 -0.6947 -0.5086
vn -0.6846 0.2506 -0.6846
vn -0.0692 -0.9636 -0.2582
vn -0.2506 -0.2506 -0.9351
vn -0.1862 0.6947 -0.6947
vn -0.1862 -0.6947 -0.6947
vn -0.2506 0.2506 -0.9351
vn -0.0692 0.9636 -0.2582
usemtl None
s off
f 64/90/73 123/91/73 68/92/73 69/93/73
f 63/94/74 102/95/74 67/96/74
f 66/97/75 65/98/75 71/99/75
f 124/100/76 64/90/76 69/93/76 70/101/76
f 123/91/77 63/94/77 67/96/77 68/92/77
f 65/98/78 124/100/78 70/101/78 71/99/78
f 66/102/79 71/99/79 76/103/79
f 70/101/80 69/93/80 74/104/80 75/105/80
f 68/92/81 67/96/81 72/106/81 73/107/81
f 71/99/82 70/101/82 75/105/82 76/103/82
f 69/93/83 68/92/83 73/107/83 74/104/83
f 67/96/84 102/108/84 72/106/84
f 66/109/85 76/103/85 81/110/85
f 75/105/86 74/104/86 79/111/86 80/112/86
f 73/107/87 72/106/87 77/113/87 78/114/87
f 76/103/88 75/105/88 80/112/88 81/110/88
f 74/104/89 73/107/89 78/114/89 79/111/89
f 72/106/90 102/115/90 77/113/90
f 80/112/91 79/111/91 84/116/91 85/117/91
f 78/114/92 77/113/92 82/118/92 83/119/92
f 81/110/93 80/112/93 85/117/93 86/120/93
f 79/111/94 78/114/94 83/119/94 84/116/94
f 77/113/95 102/121/95 82/118/95
f 66/122/96 81/110/96 86/120/96
f 83/119/97 82/118/97 87/123/97 88/124/97
f 86/120/98 85/117/98 90/125/98 91/126/98
f 84/116/99 83/119/99 88/124/99 89/127/99
f 82/118/100 102/128/100 87/123/100
f 66/129/101 86/120/101 91/126/101
f 85/117/102 84/116/102 89/127/102 90/125/102
f 91/126/103 90/125/103 95/130/103 96/131/103
f 89/127/104 88/124/104 93/132/104 94/133/104
f 87/123/105 102/134/105 92/135/105
f 66/136/106 91/126/106 96/131/106
f 90/125/107 89/127/107 94/133/107 95/130/107
f 88/124/108 87/123/108 92/135/108 93/132/108
f 96/131/109 95/130/109 100/137/109 101/138/109
f 94/133/110 93/132/110 98/139/110 99/140/110
f 92/135/111 102/141/111 97/142/111
f 66/143/112 96/131/112 101/138/112
f 95/130/113 94/133/113 99/140/113 100/137/113
f 93/132/114 92/135/114 97/142/114 98/139/114
f 101/138/115 100/137/115 106/144/115 107/145/115
f 99/140/116 98/139/116 104/146/116 105/147/116
f 97/142/117 102/148/117 103/149/117
f 66/150/118 101/138/118 107/145/118
f 100/137/119 99/140/119 105/147/119 106/144/119
f 98/139/120 97/142/120 103/149/120 104/146/120
f 107/145/121 106/144/121 111/151/121 112/152/121
f 105/147/122 104/146/122 109/153/122 110/154/122
f 103/149/123 102/155/123 108/156/123
f 66/157/124 107/145/124 112/152/124
f 106/144/125 105/147/125 110/154/125 111/151/125
f 104/146/126 103/149/126 108/156/126 109/153/126
f 110/158/127 109/159/127 114/160/127 115/161/127
f 108/162/128 102/163/128 113/164/128
f 66/165/129 112/166/129 117/167/129
f 111/168/130 110/158/130 115/161/130 116/169/130
f 109/159/131 108/162/131 113/164/131 114/160/131
f 112/166/132 111/168/132 116/169/132 117/167/132
f 113/164/133 102/170/133 118/171/133
f 66/172/134 117/167/134 122/173/134
f 116/169/135 115/161/135 120/174/135 121/175/135
f 114/160/136 113/164/136 118/171/136 119/176/136
f 117/167/137 116/169/137 121/175/137 122/173/137
f 115/161/138 114/160/138 119/176/138 120/174/138
f 66/177/139 122/173/139 65/98/139
f 121/175/140 120/174/140 64/90/140 124/100/140
f 119/176/141 118/171/141 63/94/141 123/91/141
f 122/173/142 121/175/142 124/100/142 65/98/142
f 120/174/143 119/176/143 123/91/143 64/90/143
f 118/171/144 102/178/144 63/94/144
o Куб_Куб.001
v -0.367222 2.029421 0.381041
v -0.367222 0.144343 0.381041
v -0.367222 2.029421 -0.394216
v -0.367222 0.144343 -0.394216
v 0.408035 2.029421 0.381041
v 0.408035 0.144343 0.381041
v 0.408035 2.029421 -0.394216
v 0.408035 0.144343 -0.394216
vt 0.375000 0.000000
vt 0.375000 0.250000
vt 0.625000 0.250000
vt 0.625000 0.000000
vt 0.375000 0.500000
vt 0.625000 0.500000
vt 0.375000 0.750000
vt 0.625000 0.750000
vt 0.375000 1.000000
vt 0.625000 1.000000
vt 0.125000 0.500000
vt 0.125000 0.750000
vt 0.875000 0.750000
vt 0.875000 0.500000
vn -1.0000 0.0000 0.0000
vn 0.0000 0.0000 -1.0000
vn 1.0000 0.0000 0.0000
vn 0.0000 0.0000 1.0000
vn 0.0000 1.0000 0.0000
vn 0.0000 -1.0000 0.0000
usemtl None
s off
f 125/179/145 127/180/145 128/181/145 126/182/145
f 127/180/146 131/183/146 132/184/146 128/181/146
f 131/183/147 129/185/147 130/186/147 132/184/147
f 129/185/148 125/187/148 126/188/148 130/186/148
f 127/189/149 125/190/149 129/185/149 131/183/149
f 132/184/150 130/186/150 126/191/150 128/192/150
o Конус
v 0.009842 2.045208 -0.518026
v 0.493126 2.045208 -0.166900
v 0.308528 2.045208 0.401234
v -0.288843 2.045208 0.401234
v -0.473441 2.045208 -0.166900
v 0.009842 2.444957 -0.009872
vt 0.250000 0.490000
vt 0.250000 0.250000
vt 0.478254 0.324164
vt 0.391068 0.055836
vt 0.108932 0.055836
vt 0.750000 0.490000
vt 0.978254 0.324164
vt 0.891068 0.055836
vt 0.608932 0.055836
vt 0.521746 0.324164
vt 0.021746 0.324164
vn 0.4098 0.7169 -0.5640
vn 0.6630 0.7169 0.2154
vn -0.0000 0.7169 0.6971
vn 0.0000 -1.0000 0.0000
vn -0.6630 0.7169 0.2154
vn -0.4098 0.7169 -0.5640
usemtl None
s off
f 133/193/151 138/194/151 134/195/151
f 134/195/152 138/194/152 135/196/152
f 135/196/153 138/194/153 136/197/153
f 133/198/154 134/199/154 135/200/154 136/201/154 137/202/154
f 136/197/155 138/194/155 137/203/155
f 137/203/156 138/194/156 133/193/156
